<svg width="24" height="24" viewBox="0 0 24 24" fill="none" xmlns="http://www.w3.org/2000/svg">
<g clip-path="url(#clip0_1_1040)">
<path d="M22.5337 10.3273V8.9916C22.5337 6.58992 21.4472 4.33187 19.4741 2.63352C17.5009 0.935171 14.8768 0 12.0863 0C9.29573 0 6.67251 0.935365 4.69934 2.63352C2.72617 4.33168 1.63968 6.58992 1.63968 8.9916V10.325H1.55794C1.14488 10.3253 0.748853 10.4667 0.456773 10.7181C0.164693 10.9695 0.000418414 11.3104 0 11.6659L0 16.8653C0.000418414 17.2209 0.164693 17.5617 0.456773 17.8131C0.748853 18.0645 1.14488 18.2059 1.55794 18.2063H2.07545C2.38204 18.2066 2.68182 18.1285 2.93684 17.982C2.96242 18.3289 3.14347 18.6536 3.44183 18.8878C3.74018 19.122 4.13252 19.2474 4.53616 19.2375C4.93979 19.2275 5.32318 19.0831 5.6055 18.8346C5.88783 18.5861 6.04703 18.253 6.04956 17.9055V10.6258C6.04703 10.2783 5.88783 9.94513 5.6055 9.69664C5.32318 9.44816 4.93979 9.30373 4.53616 9.2938C4.13252 9.28387 3.74018 9.40922 3.44183 9.64342C3.14347 9.87762 2.96242 10.2024 2.93684 10.5492C2.7563 10.4457 2.55254 10.3759 2.33872 10.3444V8.9916C2.33872 4.3653 6.71157 0.602458 12.0863 0.602458C17.4609 0.602458 21.8338 4.3653 21.8338 8.9916V10.3273C21.5585 10.3409 21.2925 10.4175 21.0632 10.5492C21.0384 10.2018 20.8577 9.87633 20.5592 9.64152C20.2607 9.4067 19.8679 9.28098 19.4636 9.29092C19.0594 9.30087 18.6755 9.44569 18.3931 9.6948C18.1107 9.9439 17.9519 10.2778 17.9502 10.6258V17.9053C17.9505 18.1925 18.0578 18.4721 18.2563 18.7029C18.4548 18.9338 18.7341 19.1038 19.0532 19.1879C18.8459 19.66 18.5447 20.0975 18.1631 20.4807C17.1791 21.4666 15.7754 21.9965 13.9874 22.0558C13.9711 21.6983 13.7948 21.3601 13.4954 21.1119C13.1959 20.8638 12.7966 20.725 12.3809 20.7246H10.9282C10.5018 20.725 10.0931 20.8709 9.79163 21.1304C9.49016 21.3899 9.32059 21.7417 9.32011 22.1087V22.6163C9.32071 22.9832 9.49034 23.3349 9.79179 23.5943C10.0932 23.8537 10.5019 23.9996 10.9282 24H12.3809C12.799 23.9996 13.2005 23.8591 13.5004 23.6084C13.8003 23.3577 13.9751 23.0164 13.9878 22.6567C16.4914 22.5764 17.9373 21.6399 18.7172 20.8482C19.1888 20.3709 19.5491 19.8198 19.7784 19.2252C20.1237 19.1723 20.4382 19.0208 20.6712 18.7951C20.9042 18.5695 21.042 18.2828 21.0625 17.9814C21.3175 18.1282 21.6174 18.2064 21.9241 18.2061H22.4434C22.8565 18.2057 23.2525 18.0643 23.5446 17.8129C23.8367 17.5615 24.0009 17.2207 24.0014 16.8651V11.6657C24.0008 11.3237 23.8487 10.9947 23.5759 10.746C23.3032 10.4973 22.9304 10.3475 22.5337 10.3273Z" fill="#4EC259"/>
</g>
<defs>
<clipPath id="clip0_1_1040">
<rect width="24" height="24" fill="white"/>
</clipPath>
</defs>
</svg>
