<svg width="24" height="25" viewBox="0 0 24 25" fill="none" xmlns="http://www.w3.org/2000/svg">
<g clip-path="url(#clip0_1_1056)">
<path d="M21.5531 4.49994C21.4622 4.49058 21.3706 4.49058 21.2798 4.49994H2.6131C2.49346 4.50179 2.37462 4.51972 2.25977 4.55328L11.8931 14.1466L21.5531 4.49994Z" fill="#4EC259"/>
<path d="M22.5398 5.42651L12.8331 15.0932C12.5833 15.3415 12.2454 15.4809 11.8931 15.4809C11.5409 15.4809 11.2029 15.3415 10.9531 15.0932L1.33312 5.49985C1.30355 5.60854 1.28787 5.72054 1.28645 5.83318V19.1665C1.28645 19.5201 1.42693 19.8593 1.67698 20.1093C1.92703 20.3594 2.26616 20.4998 2.61979 20.4998H21.2865C21.6401 20.4998 21.9792 20.3594 22.2293 20.1093C22.4793 19.8593 22.6198 19.5201 22.6198 19.1665V5.83318C22.6145 5.69428 22.5875 5.55707 22.5398 5.42651ZM3.53312 19.1665H2.60645V18.2132L7.45312 13.4065L8.39312 14.3465L3.53312 19.1665ZM21.2731 19.1665H20.3398L15.4798 14.3465L16.4198 13.4065L21.2665 18.2132L21.2731 19.1665Z" fill="#4EC259"/>
</g>
<defs>
<clipPath id="clip0_1_1056">
<rect width="24" height="24" fill="white" transform="translate(0 0.5)"/>
</clipPath>
</defs>
</svg>
