<svg width="20" height="20" viewBox="0 0 20 20" fill="none" xmlns="http://www.w3.org/2000/svg">
<path d="M1.44297 3.59453L3.93906 1.10078C4.24375 0.796094 4.65156 0.625 5.08281 0.625C5.51406 0.625 5.92188 0.79375 6.22656 1.10078L8.91484 3.78437C9.21953 4.08906 9.39062 4.49922 9.39062 4.93047C9.39062 5.36406 9.22188 5.76953 8.91484 6.07656L6.81484 8.17891C7.29324 9.29356 7.98061 10.3063 8.83984 11.1625C9.7 12.0273 10.7055 12.7094 11.8211 13.1922L13.9211 11.0898C14.2258 10.7852 14.6336 10.6141 15.0648 10.6141C15.2776 10.6133 15.4883 10.655 15.6847 10.7366C15.8811 10.8183 16.0592 10.9384 16.2086 11.0898L18.8992 13.7734C19.2039 14.0781 19.375 14.4883 19.375 14.9195C19.375 15.3531 19.2062 15.7586 18.8992 16.0656L16.4055 18.5594C15.8852 19.0797 15.168 19.3773 14.432 19.3773C14.2797 19.3773 14.132 19.3656 13.982 19.3398C10.8789 18.8289 7.79922 17.1766 5.3125 14.6922C2.82812 12.2031 1.17812 9.12344 0.662498 6.01797C0.514843 5.13672 0.810158 4.22969 1.44297 3.59453ZM2.32422 5.73906C2.78125 8.50234 4.26719 11.2586 6.50547 13.4969C8.74375 15.7352 11.4977 17.2211 14.2609 17.6781C14.6078 17.7367 14.9641 17.6195 15.2172 17.3687L17.6664 14.9195L15.0695 12.3203L12.2617 15.1328L12.2406 15.1539L11.7344 14.9664C10.1994 14.402 8.80547 13.5107 7.64924 12.354C6.49301 11.1974 5.60211 9.80315 5.03828 8.26797L4.85078 7.76172L7.68203 4.93281L5.08516 2.33359L2.63594 4.78281C2.38281 5.03594 2.26562 5.39219 2.32422 5.73906Z" fill="#868686"/>
</svg>
