<svg width="25" height="25" viewBox="0 0 25 25" fill="none" xmlns="http://www.w3.org/2000/svg">
<g clip-path="url(#clip0_21_980)">
<path d="M12.1663 1.83334C10.0898 1.83508 8.09831 2.65847 6.62686 4.12367C5.15541 5.58888 4.32356 7.57683 4.31299 9.65334C4.31299 12.7667 6.05966 15.3733 7.33966 17.2733L7.57299 17.62C8.84651 19.4658 10.2127 21.2458 11.6663 22.9533L12.173 23.5467L12.6797 22.9533C14.1331 21.2457 15.4993 19.4656 16.773 17.62L17.0063 17.2667C18.2797 15.3667 20.0263 12.7667 20.0263 9.65334C20.0157 7.57568 19.183 5.58672 17.7101 4.12132C16.2372 2.65593 14.244 1.83332 12.1663 1.83334ZM12.1663 13.1667C11.3014 13.1667 10.4558 12.9102 9.73663 12.4296C9.01744 11.9491 8.4569 11.2661 8.12589 10.4669C7.79488 9.66782 7.70827 8.78849 7.87702 7.94015C8.04577 7.0918 8.46229 6.31255 9.07391 5.70093C9.68553 5.08931 10.4648 4.67279 11.3131 4.50404C12.1615 4.3353 13.0408 4.4219 13.8399 4.75291C14.639 5.08392 15.3221 5.64446 15.8026 6.36365C16.2832 7.08284 16.5397 7.92838 16.5397 8.79334C16.5397 9.95322 16.0789 11.0656 15.2587 11.8858C14.4386 12.7059 13.3262 13.1667 12.1663 13.1667Z" fill="#4EC259"/>
<path d="M12.1662 11.28C13.5395 11.28 14.6529 10.1667 14.6529 8.79331C14.6529 7.41996 13.5395 6.30664 12.1662 6.30664C10.7928 6.30664 9.67952 7.41996 9.67952 8.79331C9.67952 10.1667 10.7928 11.28 12.1662 11.28Z" fill="#4EC259"/>
</g>
<defs>
<clipPath id="clip0_21_980">
<rect width="24" height="24" fill="white" transform="translate(0.166504 0.5)"/>
</clipPath>
</defs>
</svg>
