<svg width="24" height="25" viewBox="0 0 24 25" fill="none" xmlns="http://www.w3.org/2000/svg">
<path d="M20.4873 17.6402L16.4223 13.9442C16.2301 13.7696 15.9776 13.6764 15.7181 13.6845C15.4585 13.6925 15.2123 13.8011 15.0313 13.9872L12.6383 16.4482C12.0623 16.3382 10.9043 15.9772 9.71228 14.7882C8.52028 13.5952 8.15928 12.4342 8.05228 11.8622L10.5113 9.46824C10.6977 9.28737 10.8064 9.04106 10.8144 8.78145C10.8225 8.52183 10.7292 8.26928 10.5543 8.07724L6.85928 4.01324C6.68432 3.8206 6.44116 3.70374 6.18143 3.6875C5.92171 3.67125 5.66588 3.7569 5.46828 3.92624L3.29828 5.78724C3.12539 5.96075 3.0222 6.19169 3.00828 6.43624C2.99328 6.68624 2.70728 12.6082 7.29928 17.2022C11.3053 21.2072 16.3233 21.5002 17.7053 21.5002C17.9073 21.5002 18.0313 21.4942 18.0643 21.4922C18.3088 21.4786 18.5396 21.3749 18.7123 21.2012L20.5723 19.0302C20.7423 18.8333 20.8286 18.5776 20.8127 18.3179C20.7968 18.0582 20.68 17.815 20.4873 17.6402Z" fill="#4EC259"/>
</svg>
